<svg xmlns="http://www.w3.org/2000/svg" viewBox="0 0 128 128" width="128" height="128">
  <defs>
    <radialGradient id="g1" cx="35%" cy="35%" r="70%">
      <stop offset="0%" stop-color="#fff7b0"/>
      <stop offset="45%" stop-color="#ffd05a"/>
      <stop offset="100%" stop-color="#ff9f1c"/>
    </radialGradient>
    <filter id="s" x="-50%" y="-50%" width="200%" height="200%">
      <feGaussianBlur stdDeviation="2" result="b"/>
      <feComposite in="SourceGraphic" in2="b" operator="over"/>
    </filter>
  </defs>

  <!-- core sphere -->
  <circle cx="64" cy="64" r="26" fill="url(#g1)" filter="url(#s)"/>
  <!-- subtle highlight -->
  <ellipse cx="54" cy="52" rx="10" ry="6" fill="rgba(255,255,255,0.35)"/>
  <!-- rays -->
  <g fill="url(#g1)" transform="rotate(0 64 64)" opacity="0.95">
    <rect x="62" y="6" width="4" height="20" rx="2"/>
    <rect x="62" y="102" width="4" height="20" rx="2"/>
    <rect x="6" y="62" width="20" height="4" rx="2"/>
    <rect x="102" y="62" width="20" height="4" rx="2"/>
    <rect x="18" y="18" width="6" height="20" rx="3" transform="rotate(-45 21 28)"/>
    <rect x="104" y="18" width="6" height="20" rx="3" transform="rotate(45 107 28)"/>
    <rect x="18" y="90" width="6" height="20" rx="3" transform="rotate(45 21 100)"/>
    <rect x="104" y="90" width="6" height="20" rx="3" transform="rotate(-45 107 100)"/>
  </g>
</svg>
